<?xml version="1.0" encoding="utf-8"?>
<!-- Generator: Adobe Illustrator 23.0.2, SVG Export Plug-In . SVG Version: 6.00 Build 0)  -->
<svg version="1.1" id="Layer_1" xmlns="http://www.w3.org/2000/svg" xmlns:xlink="http://www.w3.org/1999/xlink" x="0px" y="0px"
	 viewBox="0 0 40.2 40.2" style="enable-background:new 0 0 40.2 40.2;" xml:space="preserve">
<style type="text/css">
	.st0{fill:#F05732;}
	.st1{fill:#9E529F;}
</style>
<path class="st0" d="M27,12.2c-1.3-1-1.8,3.9-4.4,3.9c-3,0-4-13-6.3-13c-0.7,0-0.8-0.4-7.9,21.3c-2.9,9,4.4,15.8,11.8,15.8
	c4.6,0,12.3-3,12.3-12.6C32.5,20.5,29,13.7,27,12.2z M20.1,35.3c-3.7,0-6.7-3.1-6.7-7s3-7,6.7-7s6.7,3.1,6.7,7
	C26.8,32.1,23.8,35.3,20.1,35.3z"/>
<path class="st1" d="M24.1,0c-0.5,0-1.8,2.5-1.8,3.6c0,1.5,1,2,1.8,2s1.8-0.5,1.8-2C25.8,2.5,24.5,0,24.1,0z"/>
</svg>
