<svg id="Layer_1" data-name="Layer 1" xmlns="http://www.w3.org/2000/svg" xmlns:xlink="http://www.w3.org/1999/xlink" viewBox="0 0 2500 2500"><defs><style>.cls-1{fill:url(#linear-gradient);}.cls-2{fill:#2165b6;}</style><linearGradient id="linear-gradient" x1="1030.87" y1="1471.18" x2="1031.4" y2="1470.59" gradientTransform="matrix(2500, 0, 0, -1643.57, -2576469, 2418728.82)" gradientUnits="userSpaceOnUse"><stop offset="0" stop-color="#c9cbce"/><stop offset="1" stop-color="#7b7a81"/></linearGradient></defs><title>r</title><path class="cls-1" d="M1458.33,1766.45c-520.83,0-963.47-260.87-963.47-573.37s390.56-572.46,911.39-572.46c657.78,0,962.62,253,962.62,565.53s-336,580.3-910.54,580.3M1250,308.12C572.92,308.12,0,672.7,0,1141.45c0,442.71,569.45,810.24,1246.54,810.24S2500,1610.2,2500,1141.45,1927.08,308.12,1250,308.12"/><path class="cls-2" d="M1034.63,814.26v1378h416.43V1656.39c104.12,0,166.13-22.74,234.24,102.07,104.11,178.63,234.25,433.82,234.25,433.82h494.51s-312.32-510.37-338.35-535.89c-48-51.05-104.11-51.05-182.18-76.56,156.16-25.52,301.74-90.32,352.36-229.14,44.25-127.59,39-289.9-55.8-398.74-82.14-86.12-166.43-137.69-374.65-137.69Zm416.43,287h273.29c64.8,0,117.11,63.8,117.11,127.59s-52,127.6-117.11,127.6H1451.06V1101.25Z"/></svg>