<svg id="Layer_1" data-name="Layer 1" xmlns="http://www.w3.org/2000/svg" viewBox="0 0 1536 1536"><defs><style>.cls-1{fill:#1572b6;}.cls-1,.cls-2,.cls-3,.cls-4{fill-rule:evenodd;}.cls-2{fill:#35a8db;}.cls-3{fill:#e9e9e8;}.cls-4{fill:#fffffe;}</style></defs><title>css</title><g id="Layer_1-2" data-name="Layer 1-2"><g id="Layer_1-3" data-name="Layer 1-3"><g id="_337846024" data-name=" 337846024"><polygon id="_337847128" data-name=" 337847128" class="cls-1" points="1326.36 1371.13 1447.18 17.75 1448.76 0 1430.96 0 104.8 0 87 0 88.58 17.75 209.27 1371.35 210.28 1382.64 221.15 1385.65 762.73 1536 771.42 1536 1314.48 1385.43 1325.35 1382.42 1326.36 1371.13"/><polygon id="_337847104" data-name=" 337847104" class="cls-2" points="1343.81 96 767.88 96 767.88 1437.36 1235.64 1307.67 1343.81 96"/><polygon id="_337846984" data-name=" 337846984" class="cls-3" points="767.24 456.36 361.03 625.54 374.5 793.03 767.24 625.11 1185.01 446.5 1202.33 275.15 767.24 456.36"/><polygon id="_337846144" data-name=" 337846144" class="cls-3" points="767.24 275.16 770.25 275.16 773.68 275.16 777.1 275.16 780.53 275.16 783.96 275.16 787.39 275.16 790.82 275.16 794.25 275.16 797.68 275.16 801.11 275.16 804.54 275.16 807.97 275.16 811.4 275.16 814.83 275.16 818.26 275.16 821.69 275.16 825.11 275.16 828.54 275.16 831.97 275.16 835.4 275.16 838.83 275.16 842.26 275.16 845.69 275.16 849.12 275.16 852.55 275.16 855.98 275.16 859.41 275.16 862.83 275.16 866.26 275.16 869.69 275.16 873.12 275.16 876.55 275.16 879.98 275.16 883.41 275.16 886.84 275.16 890.27 275.16 893.7 275.16 897.13 275.16 900.56 275.16 903.99 275.16 907.42 275.16 910.85 275.16 914.27 275.16 917.7 275.16 921.13 275.16 924.56 275.16 927.99 275.16 931.42 275.16 934.85 275.16 938.28 275.16 941.71 275.16 945.14 275.16 948.57 275.16 952 275.16 955.43 275.16 958.85 275.16 962.28 275.16 965.71 275.16 969.14 275.16 972.57 275.16 976 275.16 979.43 275.16 982.86 275.16 986.29 275.16 989.72 275.16 993.15 275.16 996.58 275.16 1000 275.16 1003.43 275.16 1006.86 275.16 1010.29 275.16 1013.72 275.16 1017.15 275.16 1020.58 275.16 1024.01 275.16 1027.44 275.16 1030.87 275.16 1034.3 275.16 1037.73 275.16 1041.16 275.16 1044.59 275.16 1048.01 275.16 1051.44 275.16 1054.87 275.16 1058.3 275.16 1061.73 275.16 1065.16 275.16 1068.59 275.16 1072.02 275.16 1075.45 275.16 1078.88 275.16 1082.31 275.16 1085.74 275.16 1089.16 275.16 1092.59 275.16 1096.02 275.16 1099.45 275.16 1102.88 275.16 1106.31 275.16 1109.74 275.16 1113.17 275.16 1116.6 275.16 1120.03 275.16 1123.46 275.16 1126.89 275.16 1130.32 275.16 1133.75 275.16 1137.17 275.16 1140.6 275.16 1144.03 275.16 1147.46 275.16 1150.89 275.16 1154.32 275.16 1157.75 275.16 1161.18 275.16 1164.61 275.16 1168.04 275.16 1171.47 275.16 1174.9 275.16 1178.33 275.16 1181.76 275.16 1185.18 275.16 1188.61 275.16 1192.04 275.16 1195.47 275.16 1198.9 275.16 1202.33 275.16 1198.9 309.08 1195.47 342.99 1192.04 376.9 1188.61 410.82 1185.18 444.73 1185.01 446.5 1185.01 446.5 1181.76 446.5 1178.33 446.5 1174.9 446.5 1171.47 446.5 1168.04 446.5 1164.61 446.5 1161.18 446.5 1157.75 446.5 1154.32 446.5 1150.89 446.5 1147.46 446.5 1144.03 446.5 1140.6 446.5 1137.17 446.5 1133.75 446.5 1130.32 446.5 1126.89 446.5 1123.46 446.5 1120.03 446.5 1116.6 446.5 1113.17 446.5 1109.74 446.5 1106.31 446.5 1102.88 446.5 1099.45 446.5 1096.02 446.5 1092.59 446.5 1089.16 446.5 1085.74 446.5 1082.31 446.5 1078.88 446.5 1075.45 446.5 1072.02 446.5 1068.59 446.5 1065.16 446.5 1061.73 446.5 1058.3 446.5 1054.87 446.5 1051.44 446.5 1048.01 446.5 1044.59 446.5 1041.16 446.5 1037.73 446.5 1034.3 446.5 1030.87 446.5 1027.44 446.5 1024.01 446.5 1020.58 446.5 1017.15 446.5 1013.72 446.5 1010.29 446.5 1006.86 446.5 1003.43 446.5 1000 446.5 996.58 446.5 993.15 446.5 989.72 446.5 986.29 446.5 982.86 446.5 979.43 446.5 976 446.5 972.57 446.5 969.14 446.5 965.71 446.5 962.28 446.5 958.85 446.5 955.43 446.5 952 446.5 948.57 446.5 945.14 446.5 941.71 446.5 938.28 446.5 934.85 446.5 931.42 446.5 927.99 446.5 924.56 446.5 921.13 446.5 917.7 446.5 914.27 446.5 910.85 446.5 907.42 446.5 903.99 446.5 900.56 446.5 897.13 446.5 893.7 446.5 890.27 446.5 886.84 446.5 883.41 446.5 879.98 446.5 876.55 446.5 873.12 446.5 869.69 446.5 866.26 446.5 862.83 446.5 859.41 446.5 855.98 446.5 852.55 446.5 849.12 446.5 845.69 446.5 842.26 446.5 838.83 446.5 835.4 446.5 831.97 446.5 828.54 446.5 825.11 446.5 821.69 446.5 818.26 446.5 814.83 446.5 811.4 446.5 807.97 446.5 804.54 446.5 801.11 446.5 797.68 446.5 794.25 446.5 790.92 446.5 790.82 446.5 787.39 446.5 783.96 446.5 780.53 446.5 777.1 446.5 773.68 446.5 770.25 446.5 767.74 446.5 767.24 446.5 766.82 446.5 763.39 446.5 759.96 446.5 756.53 446.5 753.1 446.5 749.67 446.5 746.24 446.5 742.82 446.5 739.39 446.5 735.96 446.5 732.53 446.5 729.1 446.5 725.67 446.5 722.24 446.5 718.81 446.5 715.38 446.5 711.95 446.5 708.52 446.5 705.09 446.5 701.66 446.5 698.24 446.5 694.81 446.5 691.38 446.5 687.95 446.5 684.52 446.5 681.09 446.5 677.66 446.5 674.23 446.5 670.8 446.5 667.37 446.5 663.94 446.5 660.51 446.5 657.08 446.5 653.65 446.5 650.23 446.5 646.8 446.5 643.37 446.5 639.94 446.5 636.51 446.5 633.08 446.5 629.65 446.5 626.22 446.5 622.79 446.5 619.36 446.5 615.93 446.5 612.5 446.5 609.08 446.5 605.65 446.5 602.22 446.5 598.79 446.5 595.36 446.5 591.93 446.5 588.5 446.5 585.07 446.5 581.64 446.5 578.21 446.5 574.78 446.5 571.35 446.5 567.93 446.5 564.5 446.5 561.07 446.5 557.64 446.5 554.21 446.5 550.78 446.5 547.35 446.5 543.92 446.5 540.49 446.5 537.06 446.5 533.63 446.5 530.2 446.5 526.77 446.5 523.34 446.5 519.92 446.5 516.49 446.5 513.06 446.5 509.63 446.5 506.2 446.5 502.77 446.5 499.34 446.5 495.91 446.5 492.48 446.5 489.05 446.5 485.62 446.5 482.19 446.5 478.76 446.5 475.34 446.5 471.91 446.5 468.48 446.5 465.05 446.5 461.62 446.5 458.19 446.5 454.76 446.5 451.33 446.5 447.9 446.5 444.47 446.5 441.04 446.5 437.61 446.5 434.18 446.5 430.75 446.5 427.33 446.5 423.9 446.5 420.47 446.5 417.04 446.5 413.61 446.5 410.18 446.5 406.75 446.5 403.32 446.5 399.89 446.5 396.46 446.5 393.03 446.5 389.6 446.5 386.18 446.5 382.75 446.5 379.32 446.5 375.89 446.5 372.46 446.5 369.03 446.5 365.6 446.5 362.17 446.5 358.74 446.5 355.31 446.5 351.88 446.5 348.45 446.5 345.62 446.5 345.02 441.65 341.59 413.9 338.17 386.15 334.74 358.4 331.31 330.65 327.88 302.91 324.45 275.16 327.88 275.16 331.31 275.16 334.74 275.16 338.17 275.16 341.59 275.16 345.02 275.16 348.45 275.16 351.88 275.16 355.31 275.16 358.74 275.16 362.17 275.16 365.6 275.16 369.03 275.16 372.46 275.16 375.89 275.16 379.32 275.16 382.75 275.16 386.18 275.16 389.6 275.16 393.03 275.16 396.46 275.16 399.89 275.16 403.32 275.16 406.75 275.16 410.18 275.16 413.61 275.16 417.04 275.16 420.47 275.16 423.9 275.16 427.33 275.16 430.75 275.16 434.18 275.16 437.61 275.16 441.04 275.16 444.47 275.16 447.9 275.16 451.33 275.16 454.76 275.16 458.19 275.16 461.62 275.16 465.05 275.16 468.48 275.16 471.91 275.16 475.34 275.16 478.76 275.16 482.19 275.16 485.62 275.16 489.05 275.16 492.48 275.16 495.91 275.16 499.34 275.16 502.77 275.16 506.2 275.16 509.63 275.16 513.06 275.16 516.49 275.16 519.92 275.16 523.34 275.16 526.77 275.16 530.2 275.16 533.63 275.16 537.06 275.16 540.49 275.16 543.92 275.16 547.35 275.16 550.78 275.16 554.21 275.16 557.64 275.16 561.07 275.16 564.5 275.16 567.93 275.16 571.35 275.16 574.78 275.16 578.21 275.16 581.64 275.16 585.07 275.16 588.5 275.16 591.93 275.16 595.36 275.16 598.79 275.16 602.22 275.16 605.65 275.16 609.08 275.16 612.5 275.16 615.93 275.16 619.36 275.16 622.79 275.16 626.22 275.16 629.65 275.16 633.08 275.16 636.51 275.16 639.94 275.16 643.37 275.16 646.8 275.16 650.23 275.16 653.65 275.16 657.08 275.16 660.51 275.16 663.94 275.16 667.37 275.16 670.8 275.16 674.23 275.16 677.66 275.16 681.09 275.16 684.52 275.16 687.95 275.16 691.38 275.16 694.81 275.16 698.24 275.16 701.66 275.16 705.09 275.16 708.52 275.16 711.95 275.16 715.38 275.16 718.81 275.16 722.24 275.16 725.67 275.16 729.1 275.16 732.53 275.16 735.96 275.16 739.39 275.16 742.82 275.16 746.24 275.16 749.67 275.16 753.1 275.16 756.53 275.16 759.96 275.16 763.39 275.16 766.82 275.16 767.24 275.16"/><polygon id="_337846384" data-name=" 337846384" class="cls-3" points="361.66 625.56 1170.25 625.56 1155.52 794.96 375.13 793.03 361.66 625.56"/><polygon id="_337846192" data-name=" 337846192" class="cls-3" points="386.92 887.39 563.8 887.46 575.34 1025.97 767.24 1073.56 964.25 1018.27 977.58 791.76 1156.04 788.96 1124.04 1156.88 767.88 1260.85 409.16 1154.96 386.92 887.39"/><polygon id="_337846792" data-name=" 337846792" class="cls-4" points="767.88 624.83 1185.01 446.5 1202.33 275.15 767.88 456.09 767.88 624.83"/><polygon id="_337846480" data-name=" 337846480" class="cls-4" points="767.88 275.16 770.25 275.16 773.68 275.16 777.1 275.16 780.53 275.16 783.96 275.16 787.39 275.16 790.82 275.16 794.25 275.16 797.68 275.16 801.11 275.16 804.54 275.16 807.97 275.16 811.4 275.16 814.83 275.16 818.26 275.16 821.69 275.16 825.11 275.16 828.54 275.16 831.97 275.16 835.4 275.16 838.83 275.16 842.26 275.16 845.69 275.16 849.12 275.16 852.55 275.16 855.98 275.16 859.41 275.16 862.83 275.16 866.26 275.16 869.69 275.16 873.12 275.16 876.55 275.16 879.98 275.16 883.41 275.16 886.84 275.16 890.27 275.16 893.7 275.16 897.13 275.16 900.56 275.16 903.99 275.16 907.42 275.16 910.85 275.16 914.27 275.16 917.7 275.16 921.13 275.16 924.56 275.16 927.99 275.16 931.42 275.16 934.85 275.16 938.28 275.16 941.71 275.16 945.14 275.16 948.57 275.16 952 275.16 955.43 275.16 958.85 275.16 962.28 275.16 965.71 275.16 969.14 275.16 972.57 275.16 976 275.16 979.43 275.16 982.86 275.16 986.29 275.16 989.72 275.16 993.15 275.16 996.58 275.16 1000 275.16 1003.43 275.16 1006.86 275.16 1010.29 275.16 1013.72 275.16 1017.15 275.16 1020.58 275.16 1024.01 275.16 1027.44 275.16 1030.87 275.16 1034.3 275.16 1037.73 275.16 1041.16 275.16 1044.59 275.16 1048.01 275.16 1051.44 275.16 1054.87 275.16 1058.3 275.16 1061.73 275.16 1065.16 275.16 1068.59 275.16 1072.02 275.16 1075.45 275.16 1078.88 275.16 1082.31 275.16 1085.74 275.16 1089.16 275.16 1092.59 275.16 1096.02 275.16 1099.45 275.16 1102.88 275.16 1106.31 275.16 1109.74 275.16 1113.17 275.16 1116.6 275.16 1120.03 275.16 1123.46 275.16 1126.89 275.16 1130.32 275.16 1133.75 275.16 1137.17 275.16 1140.6 275.16 1144.03 275.16 1147.46 275.16 1150.89 275.16 1154.32 275.16 1157.75 275.16 1161.18 275.16 1164.61 275.16 1168.04 275.16 1171.47 275.16 1174.9 275.16 1178.33 275.16 1181.76 275.16 1185.18 275.16 1188.61 275.16 1192.04 275.16 1195.47 275.16 1198.9 275.16 1202.33 275.16 1198.9 309.08 1195.47 342.99 1192.04 376.9 1188.61 410.82 1185.18 444.73 1185.01 446.5 1185.01 446.5 1181.76 446.5 1178.33 446.5 1174.9 446.5 1171.47 446.5 1168.04 446.5 1164.61 446.5 1161.18 446.5 1157.75 446.5 1154.32 446.5 1150.89 446.5 1147.46 446.5 1144.03 446.5 1140.6 446.5 1137.17 446.5 1133.75 446.5 1130.32 446.5 1126.89 446.5 1123.46 446.5 1120.03 446.5 1116.6 446.5 1113.17 446.5 1109.74 446.5 1106.31 446.5 1102.88 446.5 1099.45 446.5 1096.02 446.5 1092.59 446.5 1089.16 446.5 1085.74 446.5 1082.31 446.5 1078.88 446.5 1075.45 446.5 1072.02 446.5 1068.59 446.5 1065.16 446.5 1061.73 446.5 1058.3 446.5 1054.87 446.5 1051.44 446.5 1048.01 446.5 1044.59 446.5 1041.16 446.5 1037.73 446.5 1034.3 446.5 1030.87 446.5 1027.44 446.5 1024.01 446.5 1020.58 446.5 1017.15 446.5 1013.72 446.5 1010.29 446.5 1006.86 446.5 1003.43 446.5 1000 446.5 996.58 446.5 993.15 446.5 989.72 446.5 986.29 446.5 982.86 446.5 979.43 446.5 976 446.5 972.57 446.5 969.14 446.5 965.71 446.5 962.28 446.5 958.85 446.5 955.43 446.5 952 446.5 948.57 446.5 945.14 446.5 941.71 446.5 938.28 446.5 934.85 446.5 931.42 446.5 927.99 446.5 924.56 446.5 921.13 446.5 917.7 446.5 914.27 446.5 910.85 446.5 907.42 446.5 903.99 446.5 900.56 446.5 897.13 446.5 893.7 446.5 890.27 446.5 886.84 446.5 883.41 446.5 879.98 446.5 876.55 446.5 873.12 446.5 869.69 446.5 866.26 446.5 862.83 446.5 859.41 446.5 855.98 446.5 852.55 446.5 849.12 446.5 845.69 446.5 842.26 446.5 838.83 446.5 835.4 446.5 831.97 446.5 828.54 446.5 825.11 446.5 821.69 446.5 818.26 446.5 814.83 446.5 811.4 446.5 807.97 446.5 804.54 446.5 801.11 446.5 797.68 446.5 794.25 446.5 790.92 446.5 790.82 446.5 787.39 446.5 783.96 446.5 780.53 446.5 777.1 446.5 773.68 446.5 770.25 446.5 767.88 446.5 767.88 275.16"/><polygon id="_337845784" data-name=" 337845784" class="cls-4" points="767.88 625.56 1170.25 625.56 1155.52 794.96 767.88 794 767.88 625.56"/><polygon id="_337845328" data-name=" 337845328" class="cls-4" points="767.88 1073.38 964.25 1018.27 977.58 791.76 1156.04 788.96 1124.04 1156.88 767.88 1260.85 767.88 1260.84 767.88 1073.38"/></g></g></g></svg>