<svg id="Layer_1" data-name="Layer 1" xmlns="http://www.w3.org/2000/svg" viewBox="0 0 1536 1536"><defs><style>.cls-1{fill:#e55638;}.cls-1,.cls-2,.cls-3,.cls-4{fill-rule:evenodd;}.cls-2{fill:#f26b3a;}.cls-3{fill:#eaeaea;}.cls-4{fill:#fefefe;}</style></defs><title>html</title><g id="Layer_1-2" data-name="Layer 1-2"><g id="Layer_1-3" data-name="Layer 1-3"><g id="_337848256" data-name=" 337848256"><polygon id="_337847992" data-name=" 337847992" class="cls-1" points="214.25 1382.46 91 0 1445.36 0 1321.97 1382.24 767.35 1536 214.25 1382.46"/><polygon id="_337847968" data-name=" 337847968" class="cls-2" points="768.18 1418.47 1216.34 1294.22 1321.79 113.04 768.18 113.04 768.18 1418.47"/><polygon id="_337848328" data-name=" 337848328" class="cls-3" points="768.18 625.77 543.82 625.77 528.32 452.15 768.18 452.15 768.18 282.59 767.59 282.59 343.03 282.59 347.08 328.08 388.76 795.32 768.18 795.32 768.18 625.77"/><polygon id="_337847872" data-name=" 337847872" class="cls-3" points="768.18 1066.12 767.44 1066.31 578.61 1015.32 566.53 880.1 474.78 880.1 396.33 880.1 420.09 1146.32 767.4 1242.74 768.18 1242.52 768.18 1066.12"/><polygon id="_337847848" data-name=" 337847848" class="cls-4" points="767.59 625.77 767.59 795.32 976.38 795.32 956.7 1015.22 767.59 1066.26 767.59 1242.66 1115.18 1146.32 1117.73 1117.68 1157.58 671.3 1161.71 625.77 1116.02 625.77 767.59 625.77"/><polygon id="_337847752" data-name=" 337847752" class="cls-4" points="767.59 282.59 767.59 387.9 767.59 451.73 767.59 452.15 1176.6 452.15 1177.14 452.15 1180.54 414.04 1188.27 328.08 1192.32 282.59 767.59 282.59"/></g></g></g></svg>