<svg id="Layer_1" data-name="Layer 1" xmlns="http://www.w3.org/2000/svg" viewBox="0 0 160 160"><title>mysql</title><g id="Layer_1-2" data-name="Layer 1-2"><path d="M4.23,3.13A9.91,9.91,0,0,0,.46,8c-1.39,4.36.2,8.32,6.94,17.44A51.7,51.7,0,0,1,14.93,39.9c3.17,9.61,7.93,19.52,10.4,21.8,1.19,1.09,1.59,2.18,1,3.27a90.27,90.27,0,0,0-2.57,9.31c-3.27,14.37-.3,30.62,7,38,6.35,6.34,12.59,3.17,13.78-7l.79-5.65,2.77,5.35c1.79,3.27,6.45,8.62,12.49,14.37,10.7,10.11,15.76,12.59,7,3.57-6-6.34-15-21-19.23-31.32-1.48-3.66-3.07-6.63-3.47-6.63-1.38,0-5.84,7.23-6.73,10.9-.5,1.88-1.19,5.64-1.59,8.22-.79,5.85-2.08,5.15-5.55-2.58C27.81,94.1,27.71,78,31,70.22a30.75,30.75,0,0,0,2.18-6.94c0-1-1.68-4.06-3.76-6.83-2.48-3.18-5.16-8.92-7.54-15.76C19.19,33,16.71,27.91,13.14,23.05A97.43,97.43,0,0,1,7.2,13.94c-1.39-2.88-.4-5.36,2.08-5.36,2.77,0,10.31,3.37,15.46,6.94,3.47,2.38,6,3.27,11.89,3.87,9.22,1.09,17.14,4.75,27.94,12.78C78.25,42.57,86.08,52.88,94.6,72c7.43,16.45,12.58,26.86,14.27,29,.79,1,5.45,3.37,10.4,5.15a81.52,81.52,0,0,1,17.44,9.22l8.53,5.94-6.25.7c-7.23.69-15.56,3.17-17.54,5-1.19,1.09-1.09,1.88,1.19,5.15q5.2,7.88,18.43,14.57a93.68,93.68,0,0,1,12.49,7.53c5.35,4.06,6.44,4.56,6.44,2.87,0-2-14.27-15.95-20.21-19.62-3.37-2.18-6.64-4.56-7.34-5.45-1.39-1.58.5-2.18,15-4.75,3.66-.6,6.63-1.59,6.63-2.28,0-4.26-16.74-17.74-30.12-24.38l-9-4.46-4.36-8.92c-2.38-5-6.44-13.67-9-19.42-6-13.38-13-23.58-22.8-32.9C64.28,21.17,48.82,12.65,38.12,12.55c-3.47,0-5.55-.79-9.32-3.47C19.59,2.54,9.78.16,4.23,3.13Z"/></g></svg>