<svg id="Layer_1" data-name="Layer 1" xmlns="http://www.w3.org/2000/svg" viewBox="0 0 440 440"><title>selenium</title><g id="Layer_1-2" data-name="Layer 1-2"><path d="M400.82,0,260.35,152,187.27,84,155,118,262.25,220,435,32.11ZM55,20A50.15,50.15,0,0,0,5,70V390a50.15,50.15,0,0,0,50,50H375a50.15,50.15,0,0,0,50-50V72.5L405,94.2V390a29.86,29.86,0,0,1-29.72,30H55a29.86,29.86,0,0,1-30-29.72V70A29.86,29.86,0,0,1,54.72,40H336.6l18.5-20Zm56.37,180c-37.27,0-61.84,20.1-61.84,50.25,0,24.67,14.55,40.19,44.55,47.5l21.84,5.49c22.73,5.48,31.81,12.8,31.81,26.51,0,15.53-15.45,26.48-36.36,26.48-22.73,0-38.17-9.79-40.9-26.23H45c1.82,30.15,27.27,50,64.55,50,40,0,65.45-20.1,65.45-53,0-25.58-14.54-40.21-49.08-48.44L106.82,274c-21.82-5.48-30.9-11.87-30.9-24.66,0-15.53,13.64-25.57,34.55-25.57,20,0,33.63,10,36.35,25.57h25.45C171.36,220.1,145.92,200,111.37,200ZM265.9,250c-37.5,0-60.9,25.59-60.9,65.39S228.4,380,265.9,380c30,0,51.61-13.29,57.21-36.21H297.79c-4.7,9.73-15.9,15-30.9,15-20.7,0-34.7-16.28-35.7-37.52v-1.8H325v-6.64C325,273.91,302.5,250,265.9,250Zm0,20.51c18.6,0,30.5,11.09,32.5,29.49H232.5C234.7,282.3,247.4,270.51,265.9,270.51Z"/></g></svg>