<svg id="Layer_1" data-name="Layer 1" xmlns="http://www.w3.org/2000/svg" viewBox="0 0 120 120"><defs><style>.cls-1{fill:#e55b2d;}.cls-2{fill:#ed8e24;}.cls-3{fill:#f8bf3c;}</style></defs><title>tensorflow</title><g id="layer1"><g id="g4550"><path id="path4508" class="cls-1" d="M68,18.46V36.92l32,18.47V36.92ZM4,36.92V55.39l16,9.22V46.15Zm48,9.23L36,55.39v55.38L52,120V83.08l16,9.23V73.85L52,64.61Z"/><path id="path4491" class="cls-2" d="M68,18.46,20,46.15V64.61L52,46.15V64.61l16-9.22Zm48,9.23-16,9.23V55.39l16-9.24ZM84,64.61,68,73.85V92.31l16-9.23ZM68,92.31,52,83.08V120l16-9.23Z"/><path id="path4506" class="cls-3" d="M68,0,4,36.92l16,9.23L68,18.46l32,18.46,16-9.23Zm0,55.39L52,64.61l16,9.24,16-9.24Z"/></g></g></svg>