<svg id="Layer_1" data-name="Layer 1" xmlns="http://www.w3.org/2000/svg" viewBox="0 0 42 42"><defs><style>.cls-1{fill:#283593;}.cls-1,.cls-2,.cls-3,.cls-4{fill-rule:evenodd;}.cls-2{fill:#5c6bc0;}.cls-3{fill:#fff;}.cls-4{fill:#3949ab;}</style></defs><title>c</title><g id="Layer_1-2" data-name="Layer 1-2"><g id="surface1"><path class="cls-1" d="M19.9.28a2.32,2.32,0,0,1,2.2,0L38.9,9.72A2.11,2.11,0,0,1,40,11.57V30.43a2.15,2.15,0,0,1-1.1,1.85L22.1,41.71a2.27,2.27,0,0,1-2.2,0L3.1,32.28A2.16,2.16,0,0,1,2,30.43V11.57A2.11,2.11,0,0,1,3.1,9.72Z"/><path class="cls-2" d="M2.3,31.4A1.74,1.74,0,0,1,2,30.25V11.5A2.1,2.1,0,0,1,3.09,9.66L19.84.28a2.4,2.4,0,0,1,2.27,0L38.83,9.62a2,2,0,0,1,.66.57Z"/><path class="cls-3" d="M21,7A14,14,0,1,1,7,21,14,14,0,0,1,21,7Zm0,7a7,7,0,1,1-7,7A7,7,0,0,1,21,14Z"/><path class="cls-4" d="M39.48,10.2A2.3,2.3,0,0,1,40,12V30.38a2.35,2.35,0,0,1-.32,1.13L20.59,21Z"/></g></g></svg>