<svg id="Layer_1" data-name="Layer 1" xmlns="http://www.w3.org/2000/svg" viewBox="0 0 32 32"><defs><style>.cls-1{fill:#444;}</style></defs><title>Artboard 1</title><path class="cls-1" d="M7.43,28.07a3.19,3.19,0,0,0,2.44,3.58,3.34,3.34,0,0,0,3.68-1.52c.2-.35,2.48-6.19,5.05-13,4.33-11.4,4.73-12.39,5.34-13a3,3,0,0,0,.66-.87,2.34,2.34,0,0,0-.7-.8C22.36,1.08,18.75-.07,17.21.33c-.25.07-.3.27-.3,1,0,1-.17,1.57-1.17,4.11-.36.94-.71,1.89-1,2.84a23.23,23.23,0,0,1-1,2.59c-.25.61-.8,2-1.22,3.1s-1.2,3.19-1.76,4.66a15.9,15.9,0,0,1-1.39,3.06ZM21,1.33c1.69.7,2.56,1.56,1.86,1.83s-3.66-.82-4.45-1.61c-.3-.3-.32-.4-.15-.62S19.66.76,21,1.33ZM18.24,3.46A4.88,4.88,0,0,0,21.4,4.59a9.4,9.4,0,0,1,1.2.1,3.09,3.09,0,0,1-.25.42c-.14.2-.69,1.56-1.24,3-.87,2.28-1.09,2.71-1.69,3.27A9,9,0,0,1,16,13.27a12.82,12.82,0,0,0-1.55.52,4.48,4.48,0,0,1-.87.3c-.15,0,.32-1.37,1.92-5.52.52-1.34,1.21-3.12,1.52-4A8.64,8.64,0,0,1,17.75,3a1.54,1.54,0,0,1,.51.4Zm1.47,8.42c-.05.07-1.61,4.12-3.45,9-3,7.86-3.43,8.93-3.94,9.4a1.92,1.92,0,0,1-.87.54c-.21,0-.14-.07.16-.19s.45-.28.45-.47a.61.61,0,0,1,.15-.41,1.32,1.32,0,0,0,.29-.62,5.39,5.39,0,0,1,.23-.81,21.39,21.39,0,0,0,1-2.55A3.12,3.12,0,0,1,14,25.1c.14-.3.55-1.37.94-2.38s.85-2.25,1-2.76a6.12,6.12,0,0,1,.5-1.07,1,1,0,0,0,.13-.48,3.36,3.36,0,0,1,.25-.89c.5-1.14.72-1.67,1-2.49a10.79,10.79,0,0,1,.43-1.12c.17-.32.2-.8.07-.8a2.31,2.31,0,0,0-.55.26c-.41.24-.41.24,0-.11s.77-.64,1.09-.94c.54-.5,1-.74.79-.42Zm-4.64,2.38c0,.08-.11.17-.26.17-.32,0-.79,1.08-.79,1.79,0,.3,0,.55-.13.55S13,18.14,13,19s0,.9.24,1.07a.76.76,0,0,1,.36,1,.54.54,0,0,1-.1.16c-.25.36-.95.46-1.13.18s-.44-.13-.34.47,0,.67-.3.82a1.67,1.67,0,0,0-.7,1c-.59,1.59-1.12,3-1.44,3.81a8.43,8.43,0,0,0-.43,1.64,1.28,1.28,0,0,0,.3,1.24l.4.45-.53-.37A3.62,3.62,0,0,1,8,28.34,28.81,28.81,0,0,1,9.1,25.05c.6-1.61,1.09-3,1.09-3.13a7.41,7.41,0,0,1,1.2-1.42c.67-.67,1.1-1.22,1-1.22a1.9,1.9,0,0,0-.78.53c-.3.3-.56.45-.56.34a22,22,0,0,1,2-4.62,8.84,8.84,0,0,1,2-1.44.32.32,0,0,1,0,.17Z"/></svg>