<svg id="Layer_1" data-name="Layer 1" xmlns="http://www.w3.org/2000/svg" xmlns:xlink="http://www.w3.org/1999/xlink" viewBox="0 0 2500 2500"><defs><style>.cls-1{fill:url(#linear-gradient);}.cls-2{fill:url(#linear-gradient-2);}</style><linearGradient id="linear-gradient" x1="482.87" y1="2019.13" x2="483.53" y2="2018.47" gradientTransform="matrix(1849.27, 0, 0, -1853.39, -892711.75, 3742481.49)" gradientUnits="userSpaceOnUse"><stop offset="0" stop-color="#387eb8"/><stop offset="1" stop-color="#366994"/></linearGradient><linearGradient id="linear-gradient-2" x1="482.93" y1="2019.05" x2="483.64" y2="2018.37" gradientTransform="matrix(1849.27, 0, 0, -1853.39, -892067.14, 3743109.16)" gradientUnits="userSpaceOnUse"><stop offset="0" stop-color="#ffe052"/><stop offset="1" stop-color="#ffc331"/></linearGradient></defs><title>python</title><path class="cls-1" d="M1241,9.62C608,9.62,647.48,284.15,647.48,284.15l.7,284.43H1252.3V654H408.23S3.13,608,3.13,1246.79s353.58,616.12,353.58,616.12h211V1566.49s-11.38-353.58,347.94-353.58h599.18s336.64,5.44,336.64-325.35V340.62S1902.61,9.62,1241,9.62ZM907.9,200.89a108.58,108.58,0,0,1,108.68,108.49v.19A108.57,108.57,0,0,1,908.1,418.25h-.2A108.58,108.58,0,0,1,799.22,309.77v-.2A108.58,108.58,0,0,1,907.71,200.89Z"/><path class="cls-2" d="M1259,2490.38c633.07,0,593.54-274.53,593.54-274.53l-.7-284.42H1247.7V1846h844.07s405.1,45.94,405.1-592.84-353.58-616.11-353.58-616.11h-211V933.5s11.38,353.58-347.94,353.58H985.15s-336.64-5.44-336.64,325.36v546.95s-51.11,331,610.47,331Zm333.12-191.25a108.58,108.58,0,0,1-108.68-108.49v-.19a108.58,108.58,0,0,1,108.47-108.69h.21a108.58,108.58,0,0,1,108.68,108.48v.2a108.58,108.58,0,0,1-108.49,108.68h-.19Z"/></svg>