<?xml version="1.0" standalone="no"?>
<!DOCTYPE svg PUBLIC "-//W3C//DTD SVG 20010904//EN"
 "http://www.w3.org/TR/2001/REC-SVG-20010904/DTD/svg10.dtd">
<svg version="1.0" xmlns="http://www.w3.org/2000/svg"
 width="256.000000pt" height="256.000000pt" viewBox="0 0 256.000000 256.000000"
 preserveAspectRatio="xMidYMid meet">
<metadata>
Created by potrace 1.15, written by Peter Selinger 2001-2017
</metadata>
<g transform="translate(0.000000,256.000000) scale(0.100000,-0.100000)"
fill="#ff3d00" stroke="none">
<path d="M1109 2505 c-143 -24 -239 -60 -239 -90 0 -28 31 -36 162 -40 239 -8
338 -15 425 -31 205 -35 228 -102 103 -292 -99 -149 -283 -329 -510 -499 -86
-65 -109 -93 -74 -93 43 0 291 117 426 201 231 143 398 321 463 493 73 195
-17 302 -293 352 -96 17 -360 17 -463 -1z"/>
<path d="M1870 1661 c-136 -29 -255 -102 -281 -169 -15 -38 -10 -108 10 -162
24 -64 82 -144 221 -305 212 -245 310 -383 310 -435 0 -84 -158 -115 -640
-127 -140 -3 -263 -10 -273 -15 -11 -6 -17 -18 -15 -31 7 -52 241 -96 553
-104 157 -4 220 -2 292 11 229 40 348 127 348 256 0 104 -59 197 -386 607 -77
98 -147 191 -154 208 -38 87 81 122 452 133 150 5 236 11 244 19 36 36 -39 85
-168 109 -43 8 -157 17 -253 19 -146 4 -189 2 -260 -14z"/>
<path d="M662 1339 c-178 -20 -345 -69 -358 -104 -4 -9 1 -24 10 -33 14 -15
55 -18 304 -24 360 -8 455 -26 517 -100 24 -29 27 -38 22 -83 -16 -148 -176
-360 -386 -509 -172 -123 -383 -229 -425 -213 -44 17 -14 86 213 490 67 118
121 225 121 239 0 14 -7 31 -16 39 -53 44 -199 -136 -424 -526 -118 -204 -240
-437 -240 -458 0 -9 4 -18 9 -22 15 -8 153 22 274 61 558 180 985 504 1118
849 54 138 41 225 -42 285 -123 88 -441 138 -697 109z"/>
</g>
</svg>
